<svg width="34" height="34" viewBox="0 0 34 34" fill="none" xmlns="http://www.w3.org/2000/svg">
<path d="M12 2H5.33333C3.49238 2 2 3.49238 2 5.33333V12C2 13.841 3.49238 15.3333 5.33333 15.3333H12C13.841 15.3333 15.3333 13.841 15.3333 12V5.33333C15.3333 3.49238 13.841 2 12 2Z" stroke="#6B53F6" stroke-width="3" stroke-linecap="round" stroke-linejoin="round"/>
<path d="M8.66614 15.3333V22C8.66614 22.884 9.01733 23.7319 9.64245 24.357C10.2676 24.9821 11.1154 25.3333 11.9995 25.3333H18.6661" stroke="#6B53F6" stroke-width="3" stroke-linecap="round" stroke-linejoin="round"/>
<path d="M28.6665 18.6667H21.9998C20.1589 18.6667 18.6665 20.1591 18.6665 22V28.6667C18.6665 30.5076 20.1589 32 21.9998 32H28.6665C30.5075 32 31.9998 30.5076 31.9998 28.6667V22C31.9998 20.1591 30.5075 18.6667 28.6665 18.6667Z" stroke="#6B53F6" stroke-width="3" stroke-linecap="round" stroke-linejoin="round"/>
</svg>
